# xmcd
#
# Track frame offsets: 
#        150
#        19562
#        38124
#        53114
#        72678
#        88662
#        106527
#        127133
#        146111
#        166647
#        189985
#        204586
#
# Disc length: 2960 seconds
#
# Revision: 0
# Processed by: cddbd v1.5.2PL0 Copyright (c) Steve Scherf et al.
# Submitted via: ExactAudioCopy v0.99pb4
#
DISCID=a20b8e0c
DTITLE=Sara Bareilles - Little Voice
DYEAR=2007
DGENRE=Pop
TTITLE0=Love Song
TTITLE1=Vegas
TTITLE2=Bottle It Up
TTITLE3=One Sweet Love
TTITLE4=Come Round Soon
TTITLE5=Morningside
TTITLE6=Between the Lines
TTITLE7=Love on the Rocks
TTITLE8=City
TTITLE9=Many the Miles
TTITLE10=Fairytale
TTITLE11=Gravity
EXTD=
EXTT0=
EXTT1=
EXTT2=
EXTT3=
EXTT4=
EXTT5=
EXTT6=
EXTT7=
EXTT8=
EXTT9=
EXTT10=
EXTT11=
PLAYORDER=
